<?xml version="1.0" encoding="UTF-8" standalone="no"?><svg xmlns="http://www.w3.org/2000/svg" xmlns:xlink="http://www.w3.org/1999/xlink" clip-rule="evenodd" stroke-miterlimit="10" viewBox="0 0 1920 1080"><desc>SVG generated by Keynote</desc><defs></defs><g transform="matrix(1.00, 0.00, -0.00, -1.00, 0.0, 1080.0)"><g><clipPath id="clip0x7f9b6c8e6250"><path d="M 0.0 1080.0 L 1920.0 1080.0 L 1920.0 0.0 L 0.0 0.0 Z M 0.0 1080.0 "></path></clipPath><g clip-path="url(#clip0x7f9b6c8e6250)"><image xlink:href="400D38DE9BD779267D8D9BA1A44336F3.jpeg" width="3840.00" height="2160.00" transform="matrix(0.50, 0.00, -0.00, -0.50, 0.0, 1080.0)"></image></g></g><path d="M 292.6 715.8 C 342.5 666.0 342.5 585.2 292.6 535.4 C 242.8 485.5 162.0 485.5 112.2 535.4 C 62.3 585.2 62.3 666.0 112.2 715.8 C 162.0 765.7 242.8 765.7 292.6 715.8 Z M 292.6 715.8 " fill="#B4B4B4"></path><g><clipPath id="clip0x7f9b657e9eb0"><path d="M 74.8 498.0 L 330.0 498.0 L 330.0 753.2 L 74.8 753.2 Z M 74.8 498.0 "></path></clipPath><g clip-path="url(#clip0x7f9b657e9eb0)"><text xml:space="preserve" font-family="GillSans-Light,Gill Sans" font-size="50.0" fill="#FEFFFF" transform="matrix(1.00, 0.00, -0.00, -1.00, 144.3, 637.5)">C</text><text xml:space="preserve" font-family="GillSans-Light,Gill Sans" font-size="50.0" fill="#FEFFFF" transform="matrix(1.00, 0.00, -0.00, -1.00, 178.1, 637.5)">l</text><text xml:space="preserve" font-family="GillSans-Light,Gill Sans" font-size="50.0" fill="#FEFFFF" transform="matrix(1.00, 0.00, -0.00, -1.00, 187.5, 637.5)">i</text><text xml:space="preserve" font-family="GillSans-Light,Gill Sans" font-size="50.0" fill="#FEFFFF" transform="matrix(1.00, 0.00, -0.00, -1.00, 196.9, 637.5)">e</text><text xml:space="preserve" font-family="GillSans-Light,Gill Sans" font-size="50.0" fill="#FEFFFF" transform="matrix(1.00, 0.00, -0.00, -1.00, 220.9, 637.5)">n</text><text xml:space="preserve" font-family="GillSans-Light,Gill Sans" font-size="50.0" fill="#FEFFFF" transform="matrix(1.00, 0.00, -0.00, -1.00, 245.4, 637.5)">t</text><text xml:space="preserve" font-family="LucidaGrande,Lucida Grande" font-size="50.0" fill="#FEFFFF" transform="matrix(1.00, 0.00, -0.00, -1.00, 260.5, 637.5)"> </text><text xml:space="preserve" font-family="GillSans-Light,Gill Sans" font-size="50.0" fill="#FEFFFF" transform="matrix(1.00, 0.00, -0.00, -1.00, 104.7, 580.5)">(</text><text xml:space="preserve" font-family="GillSans-Light,Gill Sans" font-size="50.0" fill="#FEFFFF" transform="matrix(1.00, 0.00, -0.00, -1.00, 121.3, 580.5)">b</text><text xml:space="preserve" font-family="GillSans-Light,Gill Sans" font-size="50.0" fill="#FEFFFF" transform="matrix(1.00, 0.00, -0.00, -1.00, 146.8, 580.5)">r</text><text xml:space="preserve" font-family="GillSans-Light,Gill Sans" font-size="50.0" fill="#FEFFFF" transform="matrix(1.00, 0.00, -0.00, -1.00, 163.4, 580.5)">o</text><text xml:space="preserve" font-family="GillSans-Light,Gill Sans" font-size="50.0" fill="#FEFFFF" transform="matrix(1.00, 0.00, -0.00, -1.00, 189.8, 580.5)">w</text><text xml:space="preserve" font-family="GillSans-Light,Gill Sans" font-size="50.0" fill="#FEFFFF" transform="matrix(1.00, 0.00, -0.00, -1.00, 225.2, 580.5)">s</text><text xml:space="preserve" font-family="GillSans-Light,Gill Sans" font-size="50.0" fill="#FEFFFF" transform="matrix(1.00, 0.00, -0.00, -1.00, 242.9, 580.5)">e</text><text xml:space="preserve" font-family="GillSans-Light,Gill Sans" font-size="50.0" fill="#FEFFFF" transform="matrix(1.00, 0.00, -0.00, -1.00, 266.8, 580.5)">r</text><text xml:space="preserve" font-family="GillSans-Light,Gill Sans" font-size="50.0" fill="#FEFFFF" transform="matrix(1.00, 0.00, -0.00, -1.00, 283.5, 580.5)">)</text></g></g><path d="M 292.6 356.5 C 342.5 306.7 342.5 225.9 292.6 176.0 C 242.8 126.2 162.0 126.2 112.2 176.0 C 62.3 225.9 62.3 306.7 112.2 356.5 C 162.0 406.3 242.8 406.3 292.6 356.5 Z M 292.6 356.5 " fill="#7F8685"></path><g><clipPath id="clip0x7f9b6c8cfa00"><path d="M 68.2 138.7 L 336.6 138.7 L 336.6 393.9 L 68.2 393.9 Z M 68.2 138.7 "></path></clipPath><g clip-path="url(#clip0x7f9b6c8cfa00)"><text xml:space="preserve" font-family="GillSans-Light,Gill Sans" font-size="50.0" fill="#FEFFFF" transform="matrix(1.00, 0.00, -0.00, -1.00, 125.8, 250.2)">S</text><text xml:space="preserve" font-family="GillSans-Light,Gill Sans" font-size="50.0" fill="#FEFFFF" transform="matrix(1.00, 0.00, -0.00, -1.00, 149.2, 250.2)">e</text><text xml:space="preserve" font-family="GillSans-Light,Gill Sans" font-size="50.0" fill="#FEFFFF" transform="matrix(1.00, 0.00, -0.00, -1.00, 173.2, 250.2)">r</text><text xml:space="preserve" font-family="GillSans-Light,Gill Sans" font-size="50.0" fill="#FEFFFF" transform="matrix(1.00, 0.00, -0.00, -1.00, 193.3, 250.2)">v</text><text xml:space="preserve" font-family="GillSans-Light,Gill Sans" font-size="50.0" fill="#FEFFFF" transform="matrix(1.00, 0.00, -0.00, -1.00, 213.9, 250.2)">e</text><text xml:space="preserve" font-family="GillSans-Light,Gill Sans" font-size="50.0" fill="#FEFFFF" transform="matrix(1.00, 0.00, -0.00, -1.00, 237.9, 250.2)">u</text><text xml:space="preserve" font-family="GillSans-Light,Gill Sans" font-size="50.0" fill="#FEFFFF" transform="matrix(1.00, 0.00, -0.00, -1.00, 262.4, 250.2)">r</text><text xml:space="preserve" font-family="LucidaGrande,Lucida Grande" font-size="50.0" fill="#FEFFFF" transform="matrix(1.00, 0.00, -0.00, -1.00, 279.0, 250.2)"> </text><text xml:space="preserve" font-family="GillSans-Light,Gill Sans" font-size="50.0" fill="#FEFFFF" transform="matrix(1.00, 0.00, -0.00, -1.00, 151.0, 193.2)">(</text><text xml:space="preserve" font-family="GillSans-Light,Gill Sans" font-size="50.0" fill="#FEFFFF" transform="matrix(1.00, 0.00, -0.00, -1.00, 167.7, 193.2)"> </text><text xml:space="preserve" font-family="GillSans-Light,Gill Sans" font-size="50.0" fill="#FEFFFF" transform="matrix(1.00, 0.00, -0.00, -1.00, 181.5, 193.2)"> </text><text xml:space="preserve" font-family="GillSans-Light,Gill Sans" font-size="50.0" fill="#FEFFFF" transform="matrix(1.00, 0.00, -0.00, -1.00, 195.4, 193.2)"> </text><text xml:space="preserve" font-family="GillSans-Light,Gill Sans" font-size="50.0" fill="#FEFFFF" transform="matrix(1.00, 0.00, -0.00, -1.00, 209.3, 193.2)"> </text><text xml:space="preserve" font-family="GillSans-Light,Gill Sans" font-size="50.0" fill="#FEFFFF" transform="matrix(1.00, 0.00, -0.00, -1.00, 223.2, 193.2)"> </text><text xml:space="preserve" font-family="GillSans-Light,Gill Sans" font-size="50.0" fill="#FEFFFF" transform="matrix(1.00, 0.00, -0.00, -1.00, 237.1, 193.2)">)</text></g></g><path d="M 422.0 316.0 L 619.0 316.0 L 619.0 216.0 L 422.0 216.0 Z M 422.3 316.3 " fill="#C0BC95"></path><g><clipPath id="clip0x7f9b6c80d760"><path d="M 412.1 216.3 L 629.5 216.3 L 629.5 316.3 L 412.1 316.3 Z M 412.1 216.3 "></path></clipPath><g clip-path="url(#clip0x7f9b6c80d760)"><text xml:space="preserve" font-family="GillSans-Light,Gill Sans" font-size="50.0" fill="#FEFFFF" transform="matrix(1.00, 0.00, -0.00, -1.00, 486.2, 249.2)">A</text><text xml:space="preserve" font-family="GillSans-Light,Gill Sans" font-size="50.0" fill="#FEFFFF" transform="matrix(1.00, 0.00, -0.00, -1.00, 519.6, 249.2)">P</text><text xml:space="preserve" font-family="GillSans-Light,Gill Sans" font-size="50.0" fill="#FEFFFF" transform="matrix(1.00, 0.00, -0.00, -1.00, 545.0, 249.2)">I</text></g></g><path d="M 84.0 0.3 L 82.7 0.3 C 58.3 0.3 34.0 0.3 9.6 0.3 L 9.0 0.3 " fill="none" stroke="#595E5D" stroke-width="2.00" transform="matrix(1.00, 0.00, 0.00, -1.00, 330.0, 266.3)"></path><path d="M 340.0 270.8 L 330.4 266.0 L 340.0 261.2 Z M 340.0 270.8 " fill="#595E5D"></path><path d="M 413.0 261.2 L 422.6 266.0 L 413.0 270.8 Z M 413.0 261.2 " fill="#595E5D"></path><path d="M 0.0 104.1 C 0.0 72.6 -0.4 41.1 -0.4 9.6 L -0.4 9.0 " fill="none" stroke="#595E5D" stroke-width="2.00" transform="matrix(1.00, 0.00, 0.00, -1.00, 202.4, 498.0)"></path><path d="M 206.8 488.0 L 202.0 497.6 L 197.2 488.0 Z M 206.8 488.0 " fill="#595E5D"></path><path d="M 104.0 393.0 L 301.0 393.0 L 301.0 293.0 L 104.0 293.0 Z M 103.9 392.9 " fill="#FFA254"></path><path d="M 0.1 -0.1 L 197.1 -0.1 L 197.1 99.9 L 0.1 99.9 Z M 0.0 0.0 " fill="none" stroke="#595E5D" stroke-width="2.00" transform="matrix(1.00, 0.00, 0.00, -1.00, 103.9, 392.9)"></path><g><clipPath id="clip0x7f9b6c8d0800"><path d="M 94.7 293.9 L 310.1 293.9 L 310.1 391.9 L 94.7 391.9 Z M 94.7 293.9 "></path></clipPath><g clip-path="url(#clip0x7f9b6c8d0800)"><text xml:space="preserve" font-family="GillSans-Light,Gill Sans" font-size="50.0" fill="#FEFFFF" transform="matrix(1.00, 0.00, -0.00, -1.00, 147.2, 325.9)">C</text><text xml:space="preserve" font-family="GillSans-Light,Gill Sans" font-size="50.0" fill="#FEFFFF" transform="matrix(1.00, 0.00, -0.00, -1.00, 181.0, 325.9)">o</text><text xml:space="preserve" font-family="GillSans-Light,Gill Sans" font-size="50.0" fill="#FEFFFF" transform="matrix(1.00, 0.00, -0.00, -1.00, 208.1, 325.9)">d</text><text xml:space="preserve" font-family="GillSans-Light,Gill Sans" font-size="50.0" fill="#FEFFFF" transform="matrix(1.00, 0.00, -0.00, -1.00, 233.6, 325.9)">e</text></g></g><path d="M 1011.4 695.2 C 1061.2 645.3 1061.2 564.5 1011.4 514.7 C 961.6 464.9 880.8 464.9 830.9 514.7 C 781.1 564.5 781.1 645.3 830.9 695.2 C 880.8 745.0 961.6 745.0 1011.4 695.2 Z M 1011.4 695.2 " fill="#B4B4B4"></path><g><clipPath id="clip0x7f9b6c816d30"><path d="M 786.9 477.3 L 1055.4 477.3 L 1055.4 732.5 L 786.9 732.5 Z M 786.9 477.3 "></path></clipPath><g clip-path="url(#clip0x7f9b6c816d30)"><text xml:space="preserve" font-family="GillSans-Light,Gill Sans" font-size="50.0" fill="#FEFFFF" transform="matrix(1.00, 0.00, -0.00, -1.00, 863.1, 645.8)">C</text><text xml:space="preserve" font-family="GillSans-Light,Gill Sans" font-size="50.0" fill="#FEFFFF" transform="matrix(1.00, 0.00, -0.00, -1.00, 896.9, 645.8)">l</text><text xml:space="preserve" font-family="GillSans-Light,Gill Sans" font-size="50.0" fill="#FEFFFF" transform="matrix(1.00, 0.00, -0.00, -1.00, 906.3, 645.8)">i</text><text xml:space="preserve" font-family="GillSans-Light,Gill Sans" font-size="50.0" fill="#FEFFFF" transform="matrix(1.00, 0.00, -0.00, -1.00, 915.7, 645.8)">e</text><text xml:space="preserve" font-family="GillSans-Light,Gill Sans" font-size="50.0" fill="#FEFFFF" transform="matrix(1.00, 0.00, -0.00, -1.00, 939.7, 645.8)">n</text><text xml:space="preserve" font-family="GillSans-Light,Gill Sans" font-size="50.0" fill="#FEFFFF" transform="matrix(1.00, 0.00, -0.00, -1.00, 964.2, 645.8)">t</text><text xml:space="preserve" font-family="LucidaGrande,Lucida Grande" font-size="50.0" fill="#FEFFFF" transform="matrix(1.00, 0.00, -0.00, -1.00, 979.3, 645.8)"> </text><text xml:space="preserve" font-family="GillSans-Light,Gill Sans" font-size="50.0" fill="#FEFFFF" transform="matrix(1.00, 0.00, -0.00, -1.00, 823.4, 588.8)">(</text><text xml:space="preserve" font-family="GillSans-Light,Gill Sans" font-size="50.0" fill="#FEFFFF" transform="matrix(1.00, 0.00, -0.00, -1.00, 840.1, 588.8)">b</text><text xml:space="preserve" font-family="GillSans-Light,Gill Sans" font-size="50.0" fill="#FEFFFF" transform="matrix(1.00, 0.00, -0.00, -1.00, 865.6, 588.8)">r</text><text xml:space="preserve" font-family="GillSans-Light,Gill Sans" font-size="50.0" fill="#FEFFFF" transform="matrix(1.00, 0.00, -0.00, -1.00, 882.2, 588.8)">o</text><text xml:space="preserve" font-family="GillSans-Light,Gill Sans" font-size="50.0" fill="#FEFFFF" transform="matrix(1.00, 0.00, -0.00, -1.00, 908.6, 588.8)">w</text><text xml:space="preserve" font-family="GillSans-Light,Gill Sans" font-size="50.0" fill="#FEFFFF" transform="matrix(1.00, 0.00, -0.00, -1.00, 944.0, 588.8)">s</text><text xml:space="preserve" font-family="GillSans-Light,Gill Sans" font-size="50.0" fill="#FEFFFF" transform="matrix(1.00, 0.00, -0.00, -1.00, 961.7, 588.8)">e</text><text xml:space="preserve" font-family="GillSans-Light,Gill Sans" font-size="50.0" fill="#FEFFFF" transform="matrix(1.00, 0.00, -0.00, -1.00, 985.6, 588.8)">r</text><text xml:space="preserve" font-family="GillSans-Light,Gill Sans" font-size="50.0" fill="#FEFFFF" transform="matrix(1.00, 0.00, -0.00, -1.00, 1002.3, 588.8)">)</text></g></g><path d="M 823.0 294.0 L 1020.0 294.0 L 1020.0 194.0 L 823.0 194.0 Z M 822.7 294.3 " fill="#C0BC95"></path><g><clipPath id="clip0x7f9b669db660"><path d="M 812.5 194.3 L 1029.9 194.3 L 1029.9 294.3 L 812.5 294.3 Z M 812.5 194.3 "></path></clipPath><g clip-path="url(#clip0x7f9b669db660)"><text xml:space="preserve" font-family="GillSans-Light,Gill Sans" font-size="50.0" fill="#FEFFFF" transform="matrix(1.00, 0.00, -0.00, -1.00, 886.5, 227.2)">A</text><text xml:space="preserve" font-family="GillSans-Light,Gill Sans" font-size="50.0" fill="#FEFFFF" transform="matrix(1.00, 0.00, -0.00, -1.00, 919.9, 227.2)">P</text><text xml:space="preserve" font-family="GillSans-Light,Gill Sans" font-size="50.0" fill="#FEFFFF" transform="matrix(1.00, 0.00, -0.00, -1.00, 945.4, 227.2)">I</text></g></g><path d="M 823.0 586.0 L 1020.0 586.0 L 1020.0 486.0 L 823.0 486.0 Z M 822.7 586.3 " fill="#FFA254"></path><path d="M 0.3 0.3 L 197.3 0.3 L 197.3 100.3 L 0.3 100.3 Z M 0.0 0.0 " fill="none" stroke="#595E5D" stroke-width="2.00" transform="matrix(1.00, 0.00, 0.00, -1.00, 822.7, 586.3)"></path><g><clipPath id="clip0x7f9b669dde60"><path d="M 813.5 487.3 L 1028.9 487.3 L 1028.9 585.3 L 813.5 585.3 Z M 813.5 487.3 "></path></clipPath><g clip-path="url(#clip0x7f9b669dde60)"><text xml:space="preserve" font-family="GillSans-Light,Gill Sans" font-size="50.0" fill="#FEFFFF" transform="matrix(1.00, 0.00, -0.00, -1.00, 866.0, 519.2)">C</text><text xml:space="preserve" font-family="GillSans-Light,Gill Sans" font-size="50.0" fill="#FEFFFF" transform="matrix(1.00, 0.00, -0.00, -1.00, 899.8, 519.2)">o</text><text xml:space="preserve" font-family="GillSans-Light,Gill Sans" font-size="50.0" fill="#FEFFFF" transform="matrix(1.00, 0.00, -0.00, -1.00, 926.9, 519.2)">d</text><text xml:space="preserve" font-family="GillSans-Light,Gill Sans" font-size="50.0" fill="#FEFFFF" transform="matrix(1.00, 0.00, -0.00, -1.00, 952.4, 519.2)">e</text></g></g><path d="M 0.0 183.1 C 0.0 125.2 -0.2 67.4 -0.2 9.6 L -0.2 8.3 " fill="none" stroke="#595E5D" stroke-width="2.00" transform="matrix(1.00, 0.00, 0.00, -1.00, 921.2, 477.3)"></path><path d="M 925.8 468.0 L 921.0 477.6 L 916.2 468.0 Z M 925.8 468.0 " fill="#595E5D"></path><path d="M 1457.3 698.9 C 1507.1 649.1 1507.1 568.3 1457.3 518.4 C 1407.5 468.6 1326.7 468.6 1276.8 518.4 C 1227.0 568.3 1227.0 649.1 1276.8 698.9 C 1326.7 748.7 1407.5 748.7 1457.3 698.9 Z M 1457.3 698.9 " fill="#B4B4B4"></path><g><clipPath id="clip0x7f9b669df9b0"><path d="M 1232.8 481.1 L 1501.3 481.1 L 1501.3 736.3 L 1232.8 736.3 Z M 1232.8 481.1 "></path></clipPath><g clip-path="url(#clip0x7f9b669df9b0)"><text xml:space="preserve" font-family="GillSans-Light,Gill Sans" font-size="50.0" fill="#FEFFFF" transform="matrix(1.00, 0.00, -0.00, -1.00, 1309.0, 649.5)">C</text><text xml:space="preserve" font-family="GillSans-Light,Gill Sans" font-size="50.0" fill="#FEFFFF" transform="matrix(1.00, 0.00, -0.00, -1.00, 1342.8, 649.5)">l</text><text xml:space="preserve" font-family="GillSans-Light,Gill Sans" font-size="50.0" fill="#FEFFFF" transform="matrix(1.00, 0.00, -0.00, -1.00, 1352.2, 649.5)">i</text><text xml:space="preserve" font-family="GillSans-Light,Gill Sans" font-size="50.0" fill="#FEFFFF" transform="matrix(1.00, 0.00, -0.00, -1.00, 1361.6, 649.5)">e</text><text xml:space="preserve" font-family="GillSans-Light,Gill Sans" font-size="50.0" fill="#FEFFFF" transform="matrix(1.00, 0.00, -0.00, -1.00, 1385.5, 649.5)">n</text><text xml:space="preserve" font-family="GillSans-Light,Gill Sans" font-size="50.0" fill="#FEFFFF" transform="matrix(1.00, 0.00, -0.00, -1.00, 1410.1, 649.5)">t</text><text xml:space="preserve" font-family="GillSans-Light,Gill Sans" font-size="50.0" fill="#FEFFFF" transform="matrix(1.00, 0.00, -0.00, -1.00, 1269.3, 592.5)">(</text><text xml:space="preserve" font-family="GillSans-Light,Gill Sans" font-size="50.0" fill="#FEFFFF" transform="matrix(1.00, 0.00, -0.00, -1.00, 1286.0, 592.5)">b</text><text xml:space="preserve" font-family="GillSans-Light,Gill Sans" font-size="50.0" fill="#FEFFFF" transform="matrix(1.00, 0.00, -0.00, -1.00, 1311.4, 592.5)">r</text><text xml:space="preserve" font-family="GillSans-Light,Gill Sans" font-size="50.0" fill="#FEFFFF" transform="matrix(1.00, 0.00, -0.00, -1.00, 1328.1, 592.5)">o</text><text xml:space="preserve" font-family="GillSans-Light,Gill Sans" font-size="50.0" fill="#FEFFFF" transform="matrix(1.00, 0.00, -0.00, -1.00, 1354.4, 592.5)">w</text><text xml:space="preserve" font-family="GillSans-Light,Gill Sans" font-size="50.0" fill="#FEFFFF" transform="matrix(1.00, 0.00, -0.00, -1.00, 1389.8, 592.5)">s</text><text xml:space="preserve" font-family="GillSans-Light,Gill Sans" font-size="50.0" fill="#FEFFFF" transform="matrix(1.00, 0.00, -0.00, -1.00, 1407.5, 592.5)">e</text><text xml:space="preserve" font-family="GillSans-Light,Gill Sans" font-size="50.0" fill="#FEFFFF" transform="matrix(1.00, 0.00, -0.00, -1.00, 1431.5, 592.5)">r</text><text xml:space="preserve" font-family="GillSans-Light,Gill Sans" font-size="50.0" fill="#FEFFFF" transform="matrix(1.00, 0.00, -0.00, -1.00, 1448.1, 592.5)">)</text></g></g><path d="M 1457.3 553.6 C 1507.1 503.8 1507.1 423.0 1457.3 373.2 C 1407.5 323.3 1326.7 323.3 1276.8 373.2 C 1227.0 423.0 1227.0 503.8 1276.8 553.6 C 1326.7 603.5 1407.5 603.5 1457.3 553.6 Z M 1457.3 553.6 " fill="#7F8685"></path><g><clipPath id="clip0x7f9b66973360"><path d="M 1232.8 335.8 L 1501.3 335.8 L 1501.3 591.0 L 1232.8 591.0 Z M 1232.8 335.8 "></path></clipPath><g clip-path="url(#clip0x7f9b66973360)"><text xml:space="preserve" font-family="GillSans-Light,Gill Sans" font-size="50.0" fill="#FEFFFF" transform="matrix(1.00, 0.00, -0.00, -1.00, 1290.4, 447.3)">S</text><text xml:space="preserve" font-family="GillSans-Light,Gill Sans" font-size="50.0" fill="#FEFFFF" transform="matrix(1.00, 0.00, -0.00, -1.00, 1313.9, 447.3)">e</text><text xml:space="preserve" font-family="GillSans-Light,Gill Sans" font-size="50.0" fill="#FEFFFF" transform="matrix(1.00, 0.00, -0.00, -1.00, 1337.9, 447.3)">r</text><text xml:space="preserve" font-family="GillSans-Light,Gill Sans" font-size="50.0" fill="#FEFFFF" transform="matrix(1.00, 0.00, -0.00, -1.00, 1358.0, 447.3)">v</text><text xml:space="preserve" font-family="GillSans-Light,Gill Sans" font-size="50.0" fill="#FEFFFF" transform="matrix(1.00, 0.00, -0.00, -1.00, 1378.6, 447.3)">e</text><text xml:space="preserve" font-family="GillSans-Light,Gill Sans" font-size="50.0" fill="#FEFFFF" transform="matrix(1.00, 0.00, -0.00, -1.00, 1402.5, 447.3)">u</text><text xml:space="preserve" font-family="GillSans-Light,Gill Sans" font-size="50.0" fill="#FEFFFF" transform="matrix(1.00, 0.00, -0.00, -1.00, 1427.0, 447.3)">r</text><text xml:space="preserve" font-family="GillSans-Light,Gill Sans" font-size="50.0" fill="#FEFFFF" transform="matrix(1.00, 0.00, -0.00, -1.00, 1281.0, 390.3)">(</text><text xml:space="preserve" font-family="GillSans-Light,Gill Sans" font-size="50.0" fill="#FEFFFF" transform="matrix(1.00, 0.00, -0.00, -1.00, 1297.6, 390.3)"> </text><text xml:space="preserve" font-family="GillSans-Light,Gill Sans" font-size="50.0" fill="#FEFFFF" transform="matrix(1.00, 0.00, -0.00, -1.00, 1311.5, 390.3)"> </text><text xml:space="preserve" font-family="GillSans-Light,Gill Sans" font-size="50.0" fill="#FEFFFF" transform="matrix(1.00, 0.00, -0.00, -1.00, 1325.4, 390.3)"> </text><text xml:space="preserve" font-family="GillSans-Light,Gill Sans" font-size="50.0" fill="#FEFFFF" transform="matrix(1.00, 0.00, -0.00, -1.00, 1339.2, 390.3)"> </text><text xml:space="preserve" font-family="GillSans-Light,Gill Sans" font-size="50.0" fill="#FEFFFF" transform="matrix(1.00, 0.00, -0.00, -1.00, 1353.1, 390.3)"> </text><text xml:space="preserve" font-family="GillSans-Light,Gill Sans" font-size="50.0" fill="#FEFFFF" transform="matrix(1.00, 0.00, -0.00, -1.00, 1367.0, 390.3)"> </text><text xml:space="preserve" font-family="GillSans-Light,Gill Sans" font-size="50.0" fill="#FEFFFF" transform="matrix(1.00, 0.00, -0.00, -1.00, 1380.9, 390.3)"> </text><text xml:space="preserve" font-family="GillSans-Light,Gill Sans" font-size="50.0" fill="#FEFFFF" transform="matrix(1.00, 0.00, -0.00, -1.00, 1394.8, 390.3)"> </text><text xml:space="preserve" font-family="GillSans-Light,Gill Sans" font-size="50.0" fill="#FEFFFF" transform="matrix(1.00, 0.00, -0.00, -1.00, 1408.7, 390.3)"> </text><text xml:space="preserve" font-family="GillSans-Light,Gill Sans" font-size="50.0" fill="#FEFFFF" transform="matrix(1.00, 0.00, -0.00, -1.00, 1422.5, 390.3)"> </text><text xml:space="preserve" font-family="GillSans-Light,Gill Sans" font-size="50.0" fill="#FEFFFF" transform="matrix(1.00, 0.00, -0.00, -1.00, 1436.4, 390.3)">)</text></g></g><path d="M 1631.0 585.0 L 1828.0 585.0 L 1828.0 485.0 L 1631.0 485.0 Z M 1631.0 585.0 " fill="#C0BC95"></path><g><clipPath id="clip0x7f9b66967fe0"><path d="M 1620.8 485.0 L 1838.2 485.0 L 1838.2 585.0 L 1620.8 585.0 Z M 1620.8 485.0 "></path></clipPath><g clip-path="url(#clip0x7f9b66967fe0)"><text xml:space="preserve" font-family="GillSans-Light,Gill Sans" font-size="50.0" fill="#FEFFFF" transform="matrix(1.00, 0.00, -0.00, -1.00, 1694.9, 517.9)">A</text><text xml:space="preserve" font-family="GillSans-Light,Gill Sans" font-size="50.0" fill="#FEFFFF" transform="matrix(1.00, 0.00, -0.00, -1.00, 1728.2, 517.9)">P</text><text xml:space="preserve" font-family="GillSans-Light,Gill Sans" font-size="50.0" fill="#FEFFFF" transform="matrix(1.00, 0.00, -0.00, -1.00, 1753.7, 517.9)">I</text></g></g><path d="M 155.4 0.0 L 154.8 0.0 C 106.4 0.0 58.0 0.0 9.6 0.0 L 8.4 0.0 " fill="none" stroke="#595E5D" stroke-width="2.00" transform="matrix(1.00, 0.00, 0.00, -1.00, 1466.6, 535.0)"></path><path d="M 1476.0 539.8 L 1466.4 535.0 L 1476.0 530.2 Z M 1476.0 539.8 " fill="#595E5D"></path><path d="M 1621.0 530.2 L 1630.6 535.0 L 1621.0 539.8 Z M 1621.0 530.2 " fill="#595E5D"></path><path d="M 1269.0 585.0 L 1466.0 585.0 L 1466.0 485.0 L 1269.0 485.0 Z M 1268.6 585.0 " fill="#FFA254"></path><path d="M 0.4 0.0 L 197.4 0.0 L 197.4 100.0 L 0.4 100.0 Z M 0.0 0.0 " fill="none" stroke="#595E5D" stroke-width="2.00" transform="matrix(1.00, 0.00, 0.00, -1.00, 1268.6, 585.0)"></path><g><clipPath id="clip0x7f9b66975f80"><path d="M 1259.4 486.0 L 1474.8 486.0 L 1474.8 584.0 L 1259.4 584.0 Z M 1259.4 486.0 "></path></clipPath><g clip-path="url(#clip0x7f9b66975f80)"><text xml:space="preserve" font-family="GillSans-Light,Gill Sans" font-size="50.0" fill="#FEFFFF" transform="matrix(1.00, 0.00, -0.00, -1.00, 1311.9, 517.9)">C</text><text xml:space="preserve" font-family="GillSans-Light,Gill Sans" font-size="50.0" fill="#FEFFFF" transform="matrix(1.00, 0.00, -0.00, -1.00, 1345.7, 517.9)">o</text><text xml:space="preserve" font-family="GillSans-Light,Gill Sans" font-size="50.0" fill="#FEFFFF" transform="matrix(1.00, 0.00, -0.00, -1.00, 1372.8, 517.9)">d</text><text xml:space="preserve" font-family="GillSans-Light,Gill Sans" font-size="50.0" fill="#FEFFFF" transform="matrix(1.00, 0.00, -0.00, -1.00, 1398.3, 517.9)">e</text></g></g><path d="M -0.1 -0.3 L 653.9 -0.3 " fill="none" stroke="#595E5D" stroke-width="2.00" stroke-dasharray="2.0, 2.0" transform="matrix(0.00, 1.00, 1.00, 0.00, 701.3, 155.1)"></path><path d="M -0.1 0.1 L 653.9 0.1 " fill="none" stroke="#595E5D" stroke-width="2.00" stroke-dasharray="2.0, 2.0" transform="matrix(0.00, 1.00, 1.00, 0.00, 1118.9, 155.1)"></path><image xlink:href="6B6B28D650CB9B30A31AB53BEBC619AC.png" width="300.00" height="180.00" transform="matrix(0.36, 0.00, -0.00, -0.36, 148.0, 237.0)"></image><image xlink:href="../../2DC953D2-DABD-4DF5-83A0-27C29B7F6A88/assets/6B6B28D650CB9B30A31AB53BEBC619AC.png" width="300.00" height="180.00" transform="matrix(0.36, 0.00, -0.00, -0.36, 222.0, 338.0)"></image><image xlink:href="CCDC50976B1FB4CBAC175F584B11B30D.png" width="210.00" height="241.00" transform="matrix(0.20, 0.00, -0.00, -0.20, 979.0, 523.0)"></image><image xlink:href="../../2DC953D2-DABD-4DF5-83A0-27C29B7F6A88/assets/CCDC50976B1FB4CBAC175F584B11B30D.png" width="210.00" height="241.00" transform="matrix(0.20, 0.00, -0.00, -0.20, 1431.0, 522.0)"></image><image xlink:href="E6FE8168976F271B504ED8781BE13F85.png" width="600.00" height="300.00" transform="matrix(0.25, 0.00, -0.00, -0.25, 1293.0, 446.0)"></image></g></svg>